# xmcd
#
# Track frame offsets:
#	150
#	13299
#	27550
#	49835
#	65366
#	81432
#	100547
#	114645
#	132519
#	155295
#	172483
#	188252
#	206751
#
# Disc length: 2899 seconds
#
# Revision: 1
# Processed by: cddbd v1.4PL0 Copyright (c) Steve Scherf et al.
# Submitted via: audiograbber 1.81.02
#
DISCID=b60b510d
DTITLE=Brother Red - Kickin' It
DYEAR=2002
DGENRE=Blues
TTITLE0=Mean Woman Blues
TTITLE1=Take A Chance With Me
TTITLE2=Getttin' Around
TTITLE3=Temptation
TTITLE4=She's Gone
TTITLE5=Organ Grind Blues
TTITLE6=Baby Workout
TTITLE7=Green Onions
TTITLE8=Pleasure Island
TTITLE9=Talk About It
TTITLE10=Last Chance To Dance
TTITLE11=Tears
TTITLE12=His Eye Is On The Sparrow
EXTD=
EXTT0=
EXTT1=
EXTT2=
EXTT3=
EXTT4=
EXTT5=
EXTT6=
EXTT7=
EXTT8=
EXTT9=
EXTT10=
EXTT11=
EXTT12=
PLAYORDER=
